<svg xmlns="http://www.w3.org/2000/svg" style="cursor: move;" width="1920" height="955"><g transform="translate(-593.1019610363758,-320.21571330950826) scale(1.681792830507429)"><path class="link" style="stroke-width: 0.5px; stroke-opacity: 1; stroke: rgb(206, 206, 255);" marker-end="url(#arrow)" d="M824,444.5, 983,487.5"></path><path class="link" style="stroke-width: 0.5px; stroke-opacity: 1; stroke: rgb(255, 102, 102);" marker-end="url(#arrow)" d="M824,487.5, 983,487.5"></path><path class="link" style="stroke-width: 0.5px; stroke-opacity: 1; stroke: rgb(255, 143, 143);" marker-end="url(#arrow)" d="M983,444.5, 1142,444.5"></path><path class="link" style="stroke-width: 0.5px; stroke-opacity: 1; stroke: rgb(39, 39, 255);" marker-end="url(#arrow)" d="M983,444.5, 1142,487.5"></path><path class="link" style="stroke-width: 0.5px; stroke-opacity: 1; stroke: rgb(255, 104, 104);" marker-end="url(#arrow)" d="M983,487.5, 1142,444.5"></path><path class="link" style="stroke-width: 0.5px; stroke-opacity: 1; stroke: rgb(255, 81, 81);" marker-end="url(#arrow)" d="M983,487.5, 1142,487.5"></path><path class="link" style="stroke-width: 0.5px; stroke-opacity: 1; stroke: rgb(36, 36, 255);" marker-end="url(#arrow)" d="M824,444.5, 983,444.5"></path><path class="link" style="stroke-width: 0.5px; stroke-opacity: 1; stroke: rgb(255, 83, 83);" marker-end="url(#arrow)" d="M824,487.5, 983,444.5"></path><circle r="11.5" class="node" id="0_0" style="fill: rgb(255, 255, 255); stroke: rgb(51, 51, 51);" cx="824" cy="444.5"></circle><circle r="11.5" class="node" id="0_1" style="fill: rgb(255, 255, 255); stroke: rgb(51, 51, 51);" cx="824" cy="487.5"></circle><circle r="11.5" class="node" id="1_0" style="fill: rgb(255, 255, 255); stroke: rgb(51, 51, 51);" cx="983" cy="444.5"></circle><circle r="11.5" class="node" id="1_1" style="fill: rgb(255, 255, 255); stroke: rgb(51, 51, 51);" cx="983" cy="487.5"></circle><circle r="11.5" class="node" id="2_0" style="fill: rgb(255, 255, 255); stroke: rgb(51, 51, 51);" cx="1142" cy="444.5"></circle><circle r="11.5" class="node" id="2_1" style="fill: rgb(255, 255, 255); stroke: rgb(51, 51, 51);" cx="1142" cy="487.5"></circle><text class="text" dy=".35em" style="font-size: 12px;" x="789" y="530.5"></text><text class="text" dy=".35em" style="font-size: 12px;" x="948" y="530.5"></text><text class="text" dy=".35em" style="font-size: 12px;" x="1107" y="530.5"></text></g><defs><marker id="arrow" viewBox="0 -5 10 10" markerWidth="7" markerHeight="7" orient="auto" refX="44.199999999999996"><path d="M0,-5L10,0L0,5" style="stroke: rgb(80, 80, 80); fill: rgb(80, 80, 80);"></path></marker></defs></svg>