<svg xmlns="http://www.w3.org/2000/svg" style="cursor: move;" width="1920" height="955"><g transform="translate(-593.1019610363758,-320.21571330950826) scale(1.681792830507429)"><path class="link" style="stroke-width: 0.5px; stroke-opacity: 1; stroke: rgb(255, 143, 143);" marker-end="url(#arrow)" d="M824,447.5, 980,467.5"></path><path class="link" style="stroke-width: 0.5px; stroke-opacity: 1; stroke: rgb(255, 222, 222);" marker-end="url(#arrow)" d="M824,447.5, 980,507.5"></path><path class="link" style="stroke-width: 0.5px; stroke-opacity: 1; stroke: rgb(58, 58, 255);" marker-end="url(#arrow)" d="M824,487.5, 980,467.5"></path><path class="link" style="stroke-width: 0.5px; stroke-opacity: 1; stroke: rgb(255, 178, 178);" marker-end="url(#arrow)" d="M824,487.5, 980,507.5"></path><path class="link" style="stroke-width: 0.5px; stroke-opacity: 1; stroke: rgb(93, 93, 255);" marker-end="url(#arrow)" d="M980,427.5, 1136,447.5"></path><path class="link" style="stroke-width: 0.5px; stroke-opacity: 1; stroke: rgb(255, 54, 54);" marker-end="url(#arrow)" d="M980,427.5, 1136,487.5"></path><path class="link" style="stroke-width: 0.5px; stroke-opacity: 1; stroke: rgb(255, 246, 246);" marker-end="url(#arrow)" d="M980,467.5, 1136,447.5"></path><path class="link" style="stroke-width: 0.5px; stroke-opacity: 1; stroke: rgb(255, 235, 235);" marker-end="url(#arrow)" d="M980,467.5, 1136,487.5"></path><path class="link" style="stroke-width: 0.5px; stroke-opacity: 1; stroke: rgb(126, 126, 255);" marker-end="url(#arrow)" d="M980,507.5, 1136,447.5"></path><path class="link" style="stroke-width: 0.5px; stroke-opacity: 1; stroke: rgb(255, 155, 155);" marker-end="url(#arrow)" d="M980,507.5, 1136,487.5"></path><path class="link" style="stroke-width: 0.5px; stroke-opacity: 1; stroke: rgb(147, 147, 255);" marker-end="url(#arrow)" d="M824,447.5, 980,427.5"></path><path class="link" style="stroke-width: 0.5px; stroke-opacity: 1; stroke: rgb(52, 52, 255);" marker-end="url(#arrow)" d="M824,487.5, 980,427.5"></path><circle r="11.5" class="node" id="0_0" style="fill: rgb(255, 255, 255); stroke: rgb(51, 51, 51);" cx="824" cy="447.5"></circle><circle r="11.5" class="node" id="0_1" style="fill: rgb(255, 255, 255); stroke: rgb(51, 51, 51);" cx="824" cy="487.5"></circle><circle r="11.5" class="node" id="1_0" style="fill: rgb(255, 255, 255); stroke: rgb(51, 51, 51);" cx="980" cy="427.5"></circle><circle r="11.5" class="node" id="1_1" style="fill: rgb(255, 255, 255); stroke: rgb(51, 51, 51);" cx="980" cy="467.5"></circle><circle r="11.5" class="node" id="1_2" style="fill: rgb(255, 255, 255); stroke: rgb(51, 51, 51);" cx="980" cy="507.5"></circle><circle r="11.5" class="node" id="2_0" style="fill: rgb(255, 255, 255); stroke: rgb(51, 51, 51);" cx="1136" cy="447.5"></circle><circle r="11.5" class="node" id="2_1" style="fill: rgb(255, 255, 255); stroke: rgb(51, 51, 51);" cx="1136" cy="487.5"></circle><text class="text" dy=".35em" style="font-size: 12px;" x="789" y="547.5"></text><text class="text" dy=".35em" style="font-size: 12px;" x="945" y="547.5"></text><text class="text" dy=".35em" style="font-size: 12px;" x="1101" y="547.5"></text></g><defs><marker id="arrow" viewBox="0 -5 10 10" markerWidth="7" markerHeight="7" orient="auto" refX="44.199999999999996"><path d="M0,-5L10,0L0,5" style="stroke: rgb(80, 80, 80); fill: rgb(80, 80, 80);"></path></marker></defs></svg>